<?xml version="1.0" encoding="UTF-8"?>
<svg xmlns="http://www.w3.org/2000/svg" viewBox="0 0 128 128" width="512" height="512"><g id="Layer_7" data-name="Layer 7"><path d="M30,106v12a1,1,0,0,0,1,1H43a1,1,0,0,0,1-1V106a1,1,0,0,0-1-1H31A1,1,0,0,0,30,106Zm2,1H42v10H32Z"/><path d="M122,125a1,1,0,0,0,1-1V16a1,1,0,0,0-1-1H104a1,1,0,0,0-1,1V42H86a1,1,0,0,0-1,1V62H68a1,1,0,0,0-1,1V79H50a1,1,0,0,0-1,1v20.19L37.69,89.28a1,1,0,0,0-1.38,0L28,97.3V96a1,1,0,0,0-1-1H23a1,1,0,0,0-1,1v7.09l-2.7,2.6a1,1,0,0,0-.3.72V124a1,1,0,0,0,1,1H67v-1a1,1,0,0,0,1,1h54ZM105,17h16V123H105ZM53,123H21V106.83l2.7-2.6a1,1,0,0,0,.3-.72V97h2v2.65a1,1,0,0,0,.61.92,1,1,0,0,0,1.08-.2l9.31-9,16,15.44Zm14,0H55V106.41a1,1,0,0,0-.31-.72L51,102.12V81H67Zm18,0H69V64H85Zm18,0H87V44h16Z"/><path d="M87,24h4a1,1,0,0,0,1-1V4a1,1,0,0,0-1-1H71a1,1,0,0,0-1,1V8a1,1,0,0,0,1,1H81.59L5.29,85.29a1,1,0,0,0,0,1.42l3,3a1,1,0,0,0,1.42,0L86,13.41V23A1,1,0,0,0,87,24ZM9,87.59,7.41,86,84.71,8.71a1,1,0,0,0,.21-1.09A1,1,0,0,0,84,7H72V5H90V22H88V11a1,1,0,0,0-.62-.92,1,1,0,0,0-1.09.21Z"/></g></svg>
