<svg id="Layer_1" enable-background="new 0 0 520 520" height="512" viewBox="0 0 520 520" width="512" xmlns="http://www.w3.org/2000/svg"><g id="_x34_73_x2C__Buildings_x2C__business_x2C__city_x2C__district_x2C__infrastructure"><g><path d="m490 480h-65v-50h-20v50h-60v-50h-20v50h-80v-365.351l-80 56.471v-125.12h220v24h-60v20h100v-20h-30v-29c0-2.761-2.238-5-5-5h-230c-2.762 0-5 2.239-5 5v137.179l-70 49.412v252.409h-55c-2.762 0-5 2.238-5 5s2.238 5 5 5h460c2.762 0 5-2.238 5-5s-2.238-5-5-5zm-360-15h-20v-40h20zm0-50h-20v-40h20zm0-50h-20v-40h20zm0-50h-20v-40h20zm0-50h-20v-40h20zm30 200h-20v-40h20zm0-50h-20v-40h20zm0-50h-20v-40h20zm0-50h-20v-40h20zm0-50h-20v-40h20zm0-50h-20v-10h20zm30 250h-20v-40h20zm0-50h-20v-40h20zm0-50h-20v-40h20zm0-50h-20v-40h20zm0-50h-20v-40h20zm0-50h-20v-30h20zm30 250h-20v-40h20zm0-50h-20v-40h20zm0-50h-20v-40h20zm0-50h-20v-40h20zm0-50h-20v-40h20zm0-50h-20v-40h20z"/><circle cx="50" cy="135" r="10"/><circle cx="110" cy="125" r="10"/><circle cx="50" cy="295" r="10"/><circle cx="50" cy="335" r="10"/><circle cx="50" cy="375" r="10"/><circle cx="50" cy="415" r="10"/><path d="m285 400h30v20h-30z"/><path d="m285 220h30v20h-30z"/><path d="m435 400h30v20h-30z"/><path d="m435 340h30v20h-30z"/><path d="m285 370h30v20h-30z"/><path d="m285 250h30v20h-30z"/><path d="m285 280h30v20h-30z"/><path d="m285 340h30v20h-30z"/><path d="m435 370h30v20h-30z"/><path d="m435 70h30v20h-30z"/><path d="m435 100h30v20h-30z"/><path d="m100 80c8.271 0 15-6.729 15-15s-6.729-15-15-15-15 6.729-15 15 6.729 15 15 15z"/><path d="m45 210c5.514 0 10-4.486 10-10s-4.486-10-10-10-10 4.486-10 10 4.486 10 10 10z"/><path d="m435 130h30v20h-30z"/><path d="m435 190h30v20h-30z"/><path d="m435 250h30v20h-30z"/><path d="m435 280h30v20h-30z"/><path d="m435 310h30v20h-30z"/><path d="m435 160h30v20h-30z"/><path d="m435 220h30v20h-30z"/><path d="m285 310h30v20h-30z"/><path d="m325 310h100v20h-100z"/><path d="m325 280h100v20h-100z"/><path d="m325 220h100v20h-100z"/><path d="m325 250h100v20h-100z"/><path d="m325 370h100v20h-100z"/><path d="m325 340h100v20h-100z"/><path d="m325 160h100v20h-100z"/><path d="m325 100h100v20h-100z"/><path d="m285 190h30v20h-30z"/><path d="m325 400h100v20h-100z"/><path d="m325 190h100v20h-100z"/><path d="m325 130h100v20h-100z"/><path d="m285 130h30v20h-30z"/><path d="m285 70h30v20h-30z"/><path d="m285 100h30v20h-30z"/><path d="m285 160h30v20h-30z"/></g></g></svg>