<svg id="Layer_1" enable-background="new 0 0 64 64" height="512" viewBox="0 0 64 64" width="512" xmlns="http://www.w3.org/2000/svg"><g><g><g><path d="m26.42 48.07h-23.07v-5.57h26.72v2h-24.72v1.57h21.07z"/></g><g><path d="m46.26 46.88h-2v-2.38h-4.64v-2h6.64z"/></g><g><path d="m34.56 42.5h.46v2h-.46z"/></g><g><path d="m34.56 42.5h.46v2h-.46z"/></g><g><path d="m42.09 44.5h-2.47v-2h.47v-18.96h2z"/></g><g><path d="m30.07 44.5h-22.55v-21.21h2v19.21h20.55z"/></g><g><path d="m6.05 26.54-3.87-5.05 22.62-17.69 22.67 17.66-4.31 5.05-18.36-14.92zm18.76-17.52 18.1 14.71 1.68-1.98-19.78-15.41-19.84 15.5 1.43 1.86z"/></g><g><path d="m41.96 17.72h-2v-11.16h-5.14c-.01 2.28-.02 5.17 0 5.46l-.97.05-.63.83c-.43-.32-.43-.32-.4-7.34v-1h9.13v13.16z"/></g></g><g><path d="m19 60.12-3.59-3.67 19.31-18.89 9.55 8.9 7.75-7.65-7.21-.34.24-5.13 15.43.72.49 17.56-5.14.14-.26-9.24-11.2 11.06-9.56-8.92zm-.77-3.64.8.81 15.74-15.4 9.56 8.91 13.11-12.94.33 11.85 1.14-.03-.38-13.71-11.58-.54-.05 1.14 9.78.46-12.38 12.2-9.55-8.91z"/></g><g><g><path d="m29.61 36.25h-8.89v-4.99h2v2.99h4.89v-5.48h-6.89v-9.28h8.89v5.23h-2v-3.23h-4.89v5.28h6.89z"/></g><g><path d="m24.16 35.26h2v3.24h-2z"/></g><g><path d="m24.16 16.96h2v3.52h-2z"/></g></g></g></svg>